<svg width="228" height="536" xmlns="http://www.w3.org/2000/svg" xmlns:xlink="http://www.w3.org/1999/xlink" overflow="hidden"><defs><clipPath id="clip0"><rect x="337" y="57" width="228" height="536"/></clipPath></defs><g clip-path="url(#clip0)" transform="translate(-337 -57)"><rect x="338" y="209" width="226" height="75" fill="#08AE30"/><text fill="#FFFFFF" font-family="JetBrains Mono,JetBrains Mono_MSFontService,sans-serif" font-weight="400" font-size="24" transform="translate(393.657 240)">8,174,48<tspan font-size="24" x="7.16666" y="29">#08AE30</tspan></text><rect x="338" y="284" width="226" height="76" fill="#EF6927"/><text fill="#FFFFFF" font-family="JetBrains Mono,JetBrains Mono_MSFontService,sans-serif" font-weight="400" font-size="24" transform="translate(386.49 315)">237,15,39<tspan font-size="24" x="14.3333" y="29">#EF6927</tspan></text><rect x="338" y="360" width="226" height="76" fill="#6C2DC9"/><text fill="#FFFFFF" font-family="JetBrains Mono,JetBrains Mono_MSFontService,sans-serif" font-weight="400" font-size="24" transform="translate(379.323 391)">108,45,201<tspan font-size="24" x="21.5" y="29">#6C2DC9</tspan></text><rect x="338" y="436" width="226" height="75" fill="#EE1E90"/><text fill="#FFFFFF" font-family="JetBrains Mono,JetBrains Mono_MSFontService,sans-serif" font-weight="400" font-size="24" transform="translate(379.323 467)">238,30,144<tspan font-size="24" x="21.5" y="29">#EE1E90</tspan></text><rect x="338" y="133" width="226" height="76" fill="#DA1424"/><text fill="#FFFFFF" font-family="JetBrains Mono,JetBrains Mono_MSFontService,sans-serif" font-weight="400" font-size="24" transform="translate(386.49 164)">218,20,36<tspan font-size="24" x="14.3333" y="29">#DA1424</tspan></text><rect x="338" y="511" width="226" height="76" fill="#27B7BB"/><text fill="#FFFFFF" font-family="JetBrains Mono,JetBrains Mono_MSFontService,sans-serif" font-weight="400" font-size="24" transform="translate(379.323 542)">39,183,187<tspan font-size="24" x="21.5" y="29">#27B7BB</tspan></text><rect x="338" y="58" width="226" height="75" fill="#1450DA"/><text fill="#FFFFFF" font-family="JetBrains Mono,JetBrains Mono_MSFontService,sans-serif" font-weight="400" font-size="24" transform="translate(386.49 89)">20,18,218<tspan font-size="24" x="14.3333" y="29">#1450DA</tspan></text></g></svg>